<svg width="161" height="156" viewBox="0 0 161 156" fill="none" xmlns="http://www.w3.org/2000/svg">
<path d="M42.0137 19.3678L1.63801 34.5817C1.63801 34.5817 9.78696 26.2778 16.0719 22.0138C21.6925 18.2005 25.3188 16.5571 31.5556 13.7307L31.7479 13.6436L32.0855 13.4906C38.5749 10.5492 42.3979 8.81633 49.4546 7.02424C63.5843 3.43595 68.899 2.43363 83.2607 2.18997C93.4609 2.01691 111.655 8.60005 111.655 8.60005C111.655 8.60005 120.195 10.1781 138.114 27.1814C148.413 36.9534 153.361 43.8334 157.274 56.8285C161.27 70.1006 157.35 92.5339 157.35 92.5339C157.35 92.5339 154.83 107.171 150.205 115.761C144.946 125.529 140.103 130.484 131.216 138.158C123.492 144.828 109.023 152.79 109.023 152.79L110.748 106.132L41.2301 134.99L42.0137 19.3678Z" fill="white" stroke="white" stroke-opacity="0.2" stroke-width="3"/>
</svg>
