<svg width="312" height="300" viewBox="0 0 312 300" fill="none" xmlns="http://www.w3.org/2000/svg">
<path d="M80.3515 35.4739L1.13742 65.3224C1.13742 65.3224 17.125 49.0309 29.4557 40.6652C40.4829 33.1838 47.5974 29.9596 59.8336 24.4144L60.2108 24.2434L60.873 23.9433C73.6047 18.1725 81.1053 14.7727 94.95 11.2568C122.671 4.21682 133.098 2.25033 161.275 1.77228C181.287 1.43276 216.982 14.3484 216.982 14.3484C216.982 14.3484 233.736 17.4444 268.893 50.8035C289.099 69.9755 298.806 83.4735 306.483 108.969C314.323 135.008 306.633 179.02 306.633 179.02C306.633 179.02 301.688 207.738 292.615 224.591C282.297 243.755 272.795 253.476 255.36 268.531C240.205 281.618 211.818 297.237 211.818 297.237L215.203 205.699L78.8141 262.316L80.3515 35.4739Z" stroke="white" stroke-opacity="0.2" stroke-width="3"/>
</svg>
