<svg width="402" height="114" viewBox="0 0 402 114" fill="none" xmlns="http://www.w3.org/2000/svg">
<path d="M25.5426 19.7799L2.27986 28.8499C2.27986 28.8499 6.91951 23.7523 10.5206 21.157C13.741 18.836 15.8274 17.8484 19.4157 16.15L19.5263 16.0977L19.7206 16.0058C23.4542 14.2382 25.6538 13.1969 29.7287 12.1529C37.888 10.0625 40.9608 9.49306 49.2901 9.49305C55.2059 9.49305 65.8308 13.7954 65.8308 13.7954C65.8308 13.7954 70.8018 14.871 81.378 25.6755C87.4562 31.885 90.3997 36.2324 92.8072 44.3863C95.2662 52.7141 93.2299 66.6772 93.2299 66.6772C93.2299 66.6772 91.9226 75.7883 89.3306 81.1018C86.383 87.1441 83.6258 90.1858 78.5515 94.8822C74.1407 98.9646 65.8308 103.781 65.8308 103.781L66.3377 74.6727L26.3126 91.9517L25.5426 19.7799Z" fill="white" stroke="white"/>
<path d="M128.185 77.5339V48.443H134.336V72.4629H146.807V77.5339H128.185ZM176.48 62.9884C176.48 66.1608 175.879 68.8596 174.677 71.085C173.483 73.3104 171.855 75.0102 169.79 76.1844C167.735 77.3492 165.425 77.9316 162.858 77.9316C160.273 77.9316 157.953 77.3445 155.898 76.1702C153.843 74.996 152.219 73.2962 151.026 71.0708C149.833 68.8454 149.236 66.1513 149.236 62.9884C149.236 59.8161 149.833 57.1172 151.026 54.8918C152.219 52.6664 153.843 50.9714 155.898 49.8066C157.953 48.6324 160.273 48.0452 162.858 48.0452C165.425 48.0452 167.735 48.6324 169.79 49.8066C171.855 50.9714 173.483 52.6664 174.677 54.8918C175.879 57.1172 176.48 59.8161 176.48 62.9884ZM170.245 62.9884C170.245 60.9335 169.937 59.2005 169.321 57.7896C168.715 56.3786 167.858 55.3085 166.75 54.5793C165.642 53.8502 164.345 53.4856 162.858 53.4856C161.372 53.4856 160.074 53.8502 158.966 54.5793C157.858 55.3085 156.997 56.3786 156.381 57.7896C155.775 59.2005 155.472 60.9335 155.472 62.9884C155.472 65.0433 155.775 66.7763 156.381 68.1873C156.997 69.5983 157.858 70.6683 158.966 71.3975C160.074 72.1267 161.372 72.4913 162.858 72.4913C164.345 72.4913 165.642 72.1267 166.75 71.3975C167.858 70.6683 168.715 69.5983 169.321 68.1873C169.937 66.7763 170.245 65.0433 170.245 62.9884ZM181.037 77.5339V48.443H192.514C194.711 48.443 196.586 48.836 198.139 49.6219C199.701 50.3985 200.89 51.5017 201.704 52.9316C202.528 54.3521 202.94 56.0235 202.94 57.9458C202.94 59.8776 202.523 61.5396 201.69 62.9316C200.857 64.3142 199.649 65.3748 198.068 66.1134C196.496 66.8521 194.592 67.2214 192.358 67.2214H184.673V62.2782H191.363C192.538 62.2782 193.513 62.1172 194.289 61.7952C195.066 61.4733 195.644 60.9903 196.022 60.3464C196.411 59.7024 196.605 58.9022 196.605 57.9458C196.605 56.9799 196.411 56.1655 196.022 55.5026C195.644 54.8397 195.061 54.3379 194.275 53.9969C193.499 53.6466 192.519 53.4714 191.335 53.4714H187.187V77.5339H181.037ZM196.747 64.2952L203.977 77.5339H197.187L190.113 64.2952H196.747ZM207.287 77.5339V48.443H226.889V53.514H213.437V60.4458H225.88V65.5168H213.437V72.4629H226.946V77.5339H207.287ZM256.111 48.443V77.5339H250.799L238.142 59.2242H237.929V77.5339H231.779V48.443H237.177L249.733 66.7384H249.989V48.443H256.111ZM260.88 77.5339V73.8833L275.397 53.514H260.852V48.443H283.125V52.0935L268.593 72.4629H283.153V77.5339H260.88ZM313.238 62.9884C313.238 66.1608 312.637 68.8596 311.434 71.085C310.241 73.3104 308.612 75.0102 306.548 76.1844C304.493 77.3492 302.182 77.9316 299.616 77.9316C297.031 77.9316 294.711 77.3445 292.656 76.1702C290.601 74.996 288.977 73.2962 287.784 71.0708C286.591 68.8454 285.994 66.1513 285.994 62.9884C285.994 59.8161 286.591 57.1172 287.784 54.8918C288.977 52.6664 290.601 50.9714 292.656 49.8066C294.711 48.6324 297.031 48.0452 299.616 48.0452C302.182 48.0452 304.493 48.6324 306.548 49.8066C308.612 50.9714 310.241 52.6664 311.434 54.8918C312.637 57.1172 313.238 59.8161 313.238 62.9884ZM307.002 62.9884C307.002 60.9335 306.695 59.2005 306.079 57.7896C305.473 56.3786 304.616 55.3085 303.508 54.5793C302.4 53.8502 301.103 53.4856 299.616 53.4856C298.129 53.4856 296.832 53.8502 295.724 54.5793C294.616 55.3085 293.754 56.3786 293.139 57.7896C292.533 59.2005 292.23 60.9335 292.23 62.9884C292.23 65.0433 292.533 66.7763 293.139 68.1873C293.754 69.5983 294.616 70.6683 295.724 71.3975C296.832 72.1267 298.129 72.4913 299.616 72.4913C301.103 72.4913 302.4 72.1267 303.508 71.3975C304.616 70.6683 305.473 69.5983 306.079 68.1873C306.695 66.7763 307.002 65.0433 307.002 62.9884ZM325.944 53.514V48.443H349.836V53.514H340.93V77.5339H334.851V53.514H325.944ZM359.027 48.443L366.058 70.5452H366.328L373.373 48.443H380.191L370.163 77.5339H362.237L352.194 48.443H359.027Z" fill="white"/>
</svg>
