<svg width="44" height="64" viewBox="0 0 44 64" fill="none" xmlns="http://www.w3.org/2000/svg">
<path d="M21.03 50.8729C19.128 50.8729 17.503 51.4727 16.158 52.6693C14.814 53.8649 14.138 55.3127 14.138 57.0198C14.138 58.9432 14.818 60.4527 16.176 61.5509C17.538 62.6492 19.124 63.2033 20.937 63.2033C22.78 63.2033 24.388 62.6572 25.764 61.5738C27.139 60.4854 27.826 58.9691 27.826 57.0188C27.826 55.3117 27.169 53.8639 25.854 52.6683C24.539 51.4737 22.933 50.8729 21.027 50.8729M40.458 8.55693C38.708 5.91945 36.207 3.81025 33.02 2.28198C29.851 0.767612 26.16 0 22.046 0C17.617 0 13.675 0.919545 10.335 2.73381C6.991 4.55105 4.407 6.88269 2.655 9.66317C0.895 12.4576 0 15.2678 0 18.0185C0 19.4852 0.616 20.8546 1.824 22.086C3.038 23.3253 4.548 23.9519 6.312 23.9519C9.322 23.9519 11.373 22.1982 12.417 18.7583C13.368 15.9133 14.541 13.7435 15.897 12.3056C17.173 10.9511 19.243 10.264 22.046 10.264C24.464 10.264 26.372 10.9372 27.886 12.3245C29.377 13.6929 30.103 15.3234 30.103 17.3095C30.103 18.3125 29.867 19.2131 29.394 20.0652C28.891 20.9589 28.264 21.7801 27.531 22.511C26.756 23.2816 25.477 24.4385 23.729 25.9598C21.693 27.7323 20.05 29.2844 18.854 30.5734C17.604 31.913 16.591 33.4879 15.834 35.2525C15.078 37.0291 14.694 39.1492 14.694 41.5573C14.694 43.6119 15.271 45.2027 16.411 46.2861C17.539 47.3586 18.944 47.9047 20.589 47.9047C23.734 47.9047 25.71 46.1977 26.298 43.0041C26.596 41.6765 26.822 40.749 26.972 40.2217C27.108 39.742 27.305 39.2495 27.558 38.7579C27.804 38.2793 28.193 37.7371 28.718 37.1443C29.265 36.5177 30.004 35.7828 30.91 34.9616C34.299 31.9527 36.69 29.776 38.016 28.487C39.384 27.1594 40.577 25.5616 41.562 23.7423C42.576 21.8804 43.09 19.6868 43.09 17.2291C43.092 14.1199 42.203 11.1994 40.453 8.55296" fill="#BE212F"/>
</svg>
