<svg width="40" height="38" viewBox="0 0 40 38" fill="none" xmlns="http://www.w3.org/2000/svg">
<path d="M32.7278 9.47981C33.035 9.78742 33.2076 10.2044 33.2076 10.6392C33.2076 11.0739 33.035 11.4909 32.7278 11.7986L16.8684 27.6579C16.5608 27.9652 16.1438 28.1377 15.709 28.1377C15.2743 28.1377 14.8573 27.9652 14.5496 27.6579L7.44027 20.5486C7.15063 20.2374 6.9929 19.826 7.00025 19.4009C7.00759 18.9759 7.17943 18.5702 7.47965 18.2692C7.78065 17.969 8.18633 17.7971 8.61139 17.7898C9.03646 17.7824 9.44783 17.9402 9.75902 18.2298L15.709 24.1798L30.409 9.47981C30.7166 9.17257 31.1336 9 31.5684 9C32.0032 9 32.4202 9.17257 32.7278 9.47981Z" fill="#D70018"/>
<rect x="1" y="1" width="38" height="36" stroke="#D70018" stroke-width="2"/>
</svg>
